# This file uses centimeters as units for non-parametric coordinates.

mtllib BallAnimiert.mtl
g default
v -0.441589 13.474648 2.963721
v -2.162458 13.380250 2.310457
v -2.928048 13.474648 0.636534
v -2.289885 13.702543 -1.077487
v -0.621797 13.930439 -1.827556
v 1.099072 14.024836 -1.174293
v 1.864662 13.930439 0.499630
v 1.226499 13.702543 2.213652
v -0.240449 11.929618 4.861353
v -3.420201 11.755194 3.654280
v -4.834826 11.929618 0.561274
v -3.655656 12.350714 -2.605824
v -0.573431 12.771810 -3.991771
v 2.606321 12.946233 -2.784698
v 4.020946 12.771810 0.308309
v 2.841775 12.350714 3.475407
v -0.002703 9.777369 6.018889
v -4.157250 9.549473 4.441772
v -6.005546 9.777369 0.400565
v -4.464885 10.327557 -3.737448
v -0.437766 10.877746 -5.548275
v 3.716781 11.105641 -3.971158
v 5.565078 10.877746 0.070050
v 4.024417 10.327557 4.208063
v 0.235454 7.345562 6.260104
v -4.261395 7.098890 4.553045
v -6.261977 7.345562 0.178873
v -4.594377 7.941082 -4.300080
v -0.235454 8.536601 -6.260104
v 4.261395 8.783274 -4.553045
v 6.261977 8.536601 -0.178873
v 4.594378 7.941082 4.300080
v 0.437766 5.004417 5.548275
v -3.716781 4.776522 3.971157
v -5.565077 5.004417 -0.070050
v -4.024416 5.554606 -4.208063
v 0.002703 6.104794 -6.018889
v 4.157250 6.332690 -4.441772
v 6.005547 6.104794 -0.400565
v 4.464886 5.554606 3.737449
v 0.573431 3.110353 3.991771
v -2.606321 2.935930 2.784698
v -4.020946 3.110353 -0.308309
v -2.841775 3.531450 -3.475407
v 0.240449 3.952546 -4.861353
v 3.420201 4.126969 -3.654280
v 4.834827 3.952546 -0.561274
v 3.655656 3.531450 2.605825
v 0.621797 1.951724 1.827556
v -1.099072 1.857327 1.174293
v -1.864662 1.951724 -0.499630
v -1.226499 2.179620 -2.213651
v 0.441589 2.407515 -2.963721
v 2.162458 2.501913 -2.310457
v 2.928048 2.407515 -0.636534
v 2.289885 2.179620 1.077487
v -0.575500 14.177243 0.614888
v 0.575500 1.704920 -0.614888
vt 0.000000 0.125000
vt 0.125000 0.125000
vt 0.250000 0.125000
vt 0.375000 0.125000
vt 0.500000 0.125000
vt 0.625000 0.125000
vt 0.750000 0.125000
vt 0.875000 0.125000
vt 1.000000 0.125000
vt 0.000000 0.250000
vt 0.125000 0.250000
vt 0.250000 0.250000
vt 0.375000 0.250000
vt 0.500000 0.250000
vt 0.625000 0.250000
vt 0.750000 0.250000
vt 0.875000 0.250000
vt 1.000000 0.250000
vt 0.000000 0.375000
vt 0.125000 0.375000
vt 0.250000 0.375000
vt 0.375000 0.375000
vt 0.500000 0.375000
vt 0.625000 0.375000
vt 0.750000 0.375000
vt 0.875000 0.375000
vt 1.000000 0.375000
vt 0.000000 0.500000
vt 0.125000 0.500000
vt 0.250000 0.500000
vt 0.375000 0.500000
vt 0.500000 0.500000
vt 0.625000 0.500000
vt 0.750000 0.500000
vt 0.875000 0.500000
vt 1.000000 0.500000
vt 0.000000 0.625000
vt 0.125000 0.625000
vt 0.250000 0.625000
vt 0.375000 0.625000
vt 0.500000 0.625000
vt 0.625000 0.625000
vt 0.750000 0.625000
vt 0.875000 0.625000
vt 1.000000 0.625000
vt 0.000000 0.750000
vt 0.125000 0.750000
vt 0.250000 0.750000
vt 0.375000 0.750000
vt 0.500000 0.750000
vt 0.625000 0.750000
vt 0.750000 0.750000
vt 0.875000 0.750000
vt 1.000000 0.750000
vt 0.000000 0.875000
vt 0.125000 0.875000
vt 0.250000 0.875000
vt 0.375000 0.875000
vt 0.500000 0.875000
vt 0.625000 0.875000
vt 0.750000 0.875000
vt 0.875000 0.875000
vt 1.000000 0.875000
vt 0.062500 0.000000
vt 0.187500 0.000000
vt 0.312500 0.000000
vt 0.437500 0.000000
vt 0.562500 0.000000
vt 0.687500 0.000000
vt 0.812500 0.000000
vt 0.937500 0.000000
vt 0.062500 1.000000
vt 0.187500 1.000000
vt 0.312500 1.000000
vt 0.437500 1.000000
vt 0.562500 1.000000
vt 0.687500 1.000000
vt 0.812500 1.000000
vt 0.937500 1.000000
vn -0.277012 0.730541 0.624159
vn -0.277012 0.730541 0.624159
vn -0.277012 0.730541 0.624159
vn -0.277012 0.730541 0.624159
vn -0.604483 0.730540 0.317665
vn -0.604483 0.730541 0.317665
vn -0.604483 0.730541 0.317665
vn -0.604483 0.730540 0.317665
vn -0.621265 0.772987 -0.128533
vn -0.621265 0.772987 -0.128533
vn -0.621265 0.772987 -0.128533
vn -0.621265 0.772987 -0.128533
vn -0.317528 0.833015 -0.453057
vn -0.317528 0.833015 -0.453057
vn -0.317528 0.833015 -0.453057
vn -0.317528 0.833015 -0.453057
vn 0.128803 0.875462 -0.465807
vn 0.128803 0.875462 -0.465807
vn 0.128803 0.875462 -0.465807
vn 0.128803 0.875462 -0.465807
vn 0.456274 0.875462 -0.159313
vn 0.456274 0.875462 -0.159313
vn 0.456274 0.875462 -0.159313
vn 0.456274 0.875462 -0.159313
vn 0.473056 0.833015 0.286885
vn 0.473056 0.833015 0.286885
vn 0.473056 0.833015 0.286885
vn 0.473056 0.833015 0.286885
vn 0.169319 0.772987 0.611410
vn 0.169319 0.772987 0.611410
vn 0.169319 0.772987 0.611410
vn 0.169319 0.772987 0.611410
vn -0.342666 0.415349 0.842654
vn -0.342666 0.415349 0.842654
vn -0.342666 0.415349 0.842654
vn -0.342666 0.415349 0.842654
vn -0.818159 0.415349 0.397618
vn -0.818159 0.415349 0.397618
vn -0.818160 0.415349 0.397618
vn -0.818160 0.415349 0.397618
vn -0.842528 0.476982 -0.250270
vn -0.842528 0.476982 -0.250270
vn -0.842528 0.476982 -0.250270
vn -0.842528 0.476982 -0.250270
vn -0.401496 0.564145 -0.721486
vn -0.401496 0.564145 -0.721486
vn -0.401496 0.564145 -0.721486
vn -0.401496 0.564145 -0.721486
vn 0.246586 0.625778 -0.739998
vn 0.246586 0.625778 -0.739998
vn 0.246586 0.625778 -0.739998
vn 0.246586 0.625778 -0.739998
vn 0.722080 0.625778 -0.294963
vn 0.722080 0.625778 -0.294963
vn 0.722080 0.625778 -0.294963
vn 0.722080 0.625778 -0.294963
vn 0.746448 0.564145 0.352925
vn 0.746448 0.564145 0.352925
vn 0.746448 0.564145 0.352925
vn 0.746448 0.564145 0.352925
vn 0.305416 0.476982 0.824141
vn 0.305416 0.476982 0.824141
vn 0.305416 0.476982 0.824141
vn 0.305416 0.476982 0.824141
vn -0.357069 0.057508 0.932306
vn -0.357069 0.057508 0.932306
vn -0.357069 0.057508 0.932306
vn -0.357069 0.057508 0.932306
vn -0.906663 0.057508 0.417917
vn -0.906663 0.057508 0.417917
vn -0.906663 0.057508 0.417917
vn -0.906663 0.057508 0.417917
vn -0.934829 0.128745 -0.330937
vn -0.934829 0.128745 -0.330937
vn -0.934829 0.128745 -0.330937
vn -0.934829 0.128745 -0.330937
vn -0.425068 0.229491 -0.875586
vn -0.425068 0.229491 -0.875586
vn -0.425068 0.229491 -0.875586
vn -0.425068 0.229491 -0.875586
vn 0.324010 0.300729 -0.896984
vn 0.324010 0.300729 -0.896984
vn 0.324010 0.300729 -0.896984
vn 0.324010 0.300729 -0.896984
vn 0.873604 0.300729 -0.382595
vn 0.873604 0.300729 -0.382595
vn 0.873604 0.300729 -0.382595
vn 0.873604 0.300729 -0.382595
vn 0.901769 0.229491 0.366259
vn 0.901769 0.229491 0.366259
vn 0.901769 0.229491 0.366259
vn 0.901769 0.229491 0.366259
vn 0.392008 0.128746 0.910909
vn 0.392008 0.128746 0.910909
vn 0.392008 0.128746 0.910909
vn 0.392008 0.128746 0.910909
vn -0.324010 -0.300729 0.896984
vn -0.324010 -0.300729 0.896984
vn -0.324010 -0.300729 0.896984
vn -0.324010 -0.300729 0.896984
vn -0.873604 -0.300729 0.382595
vn -0.873604 -0.300729 0.382595
vn -0.873604 -0.300729 0.382595
vn -0.873604 -0.300729 0.382595
vn -0.901770 -0.229491 -0.366259
vn -0.901770 -0.229491 -0.366259
vn -0.901769 -0.229491 -0.366259
vn -0.901769 -0.229491 -0.366259
vn -0.392008 -0.128745 -0.910909
vn -0.392008 -0.128745 -0.910909
vn -0.392008 -0.128745 -0.910909
vn -0.392008 -0.128745 -0.910909
vn 0.357069 -0.057508 -0.932306
vn 0.357069 -0.057508 -0.932306
vn 0.357069 -0.057508 -0.932306
vn 0.357069 -0.057508 -0.932306
vn 0.906663 -0.057508 -0.417917
vn 0.906663 -0.057508 -0.417917
vn 0.906663 -0.057508 -0.417917
vn 0.906663 -0.057508 -0.417917
vn 0.934829 -0.128746 0.330937
vn 0.934829 -0.128746 0.330937
vn 0.934829 -0.128746 0.330937
vn 0.934829 -0.128746 0.330937
vn 0.425068 -0.229491 0.875586
vn 0.425068 -0.229491 0.875586
vn 0.425068 -0.229491 0.875586
vn 0.425068 -0.229491 0.875586
vn -0.246586 -0.625778 0.739998
vn -0.246586 -0.625778 0.739998
vn -0.246586 -0.625778 0.739998
vn -0.246586 -0.625778 0.739998
vn -0.722080 -0.625778 0.294963
vn -0.722080 -0.625778 0.294963
vn -0.722080 -0.625778 0.294963
vn -0.722080 -0.625778 0.294963
vn -0.746448 -0.564145 -0.352925
vn -0.746448 -0.564145 -0.352925
vn -0.746448 -0.564145 -0.352925
vn -0.746448 -0.564145 -0.352925
vn -0.305416 -0.476982 -0.824141
vn -0.305416 -0.476982 -0.824141
vn -0.305416 -0.476982 -0.824141
vn -0.305416 -0.476982 -0.824141
vn 0.342666 -0.415349 -0.842654
vn 0.342666 -0.415349 -0.842654
vn 0.342666 -0.415349 -0.842654
vn 0.342666 -0.415349 -0.842654
vn 0.818159 -0.415349 -0.397618
vn 0.818159 -0.415349 -0.397618
vn 0.818159 -0.415349 -0.397618
vn 0.818159 -0.415349 -0.397618
vn 0.842528 -0.476982 0.250270
vn 0.842528 -0.476982 0.250270
vn 0.842528 -0.476982 0.250270
vn 0.842528 -0.476982 0.250270
vn 0.401496 -0.564145 0.721486
vn 0.401496 -0.564145 0.721486
vn 0.401496 -0.564145 0.721486
vn 0.401496 -0.564145 0.721486
vn -0.128803 -0.875462 0.465807
vn -0.128803 -0.875462 0.465807
vn -0.128803 -0.875462 0.465807
vn -0.128803 -0.875462 0.465807
vn -0.456274 -0.875462 0.159313
vn -0.456274 -0.875462 0.159313
vn -0.456274 -0.875462 0.159313
vn -0.456274 -0.875462 0.159313
vn -0.473056 -0.833015 -0.286885
vn -0.473056 -0.833015 -0.286885
vn -0.473056 -0.833015 -0.286885
vn -0.473056 -0.833015 -0.286885
vn -0.169319 -0.772987 -0.611410
vn -0.169319 -0.772987 -0.611410
vn -0.169319 -0.772987 -0.611410
vn -0.169319 -0.772987 -0.611410
vn 0.277012 -0.730540 -0.624159
vn 0.277012 -0.730540 -0.624159
vn 0.277012 -0.730540 -0.624159
vn 0.277012 -0.730540 -0.624159
vn 0.604483 -0.730541 -0.317665
vn 0.604483 -0.730541 -0.317665
vn 0.604483 -0.730541 -0.317665
vn 0.604483 -0.730541 -0.317665
vn 0.621265 -0.772987 0.128533
vn 0.621265 -0.772987 0.128533
vn 0.621265 -0.772987 0.128533
vn 0.621265 -0.772987 0.128533
vn 0.317528 -0.833015 0.453057
vn 0.317528 -0.833016 0.453057
vn 0.317528 -0.833015 0.453057
vn 0.317528 -0.833015 0.453057
vn -0.162282 0.942779 0.291261
vn -0.162282 0.942779 0.291261
vn -0.162282 0.942779 0.291261
vn -0.279897 0.942779 0.181180
vn -0.279897 0.942779 0.181180
vn -0.279896 0.942779 0.181180
vn -0.285924 0.958024 0.020923
vn -0.285924 0.958024 0.020923
vn -0.285924 0.958024 0.020923
vn -0.176834 0.979584 -0.095633
vn -0.176834 0.979584 -0.095633
vn -0.176834 0.979584 -0.095633
vn -0.016529 0.994829 -0.100212
vn -0.016529 0.994829 -0.100212
vn -0.016529 0.994829 -0.100212
vn 0.101086 0.994829 0.009869
vn 0.101086 0.994829 0.009869
vn 0.101086 0.994829 0.009869
vn 0.107113 0.979584 0.170125
vn 0.107113 0.979584 0.170125
vn 0.107113 0.979584 0.170125
vn -0.001977 0.958024 0.286682
vn -0.001977 0.958024 0.286682
vn -0.001977 0.958024 0.286682
vn 0.016529 -0.994829 0.100212
vn 0.016529 -0.994829 0.100212
vn 0.016529 -0.994829 0.100212
vn -0.101086 -0.994829 -0.009869
vn -0.101086 -0.994829 -0.009869
vn -0.101086 -0.994829 -0.009869
vn -0.107113 -0.979584 -0.170125
vn -0.107113 -0.979584 -0.170125
vn -0.107113 -0.979584 -0.170125
vn 0.001977 -0.958024 -0.286682
vn 0.001977 -0.958024 -0.286682
vn 0.001977 -0.958024 -0.286682
vn 0.162282 -0.942779 -0.291261
vn 0.162282 -0.942779 -0.291261
vn 0.162282 -0.942779 -0.291261
vn 0.279897 -0.942779 -0.181180
vn 0.279897 -0.942779 -0.181180
vn 0.279897 -0.942779 -0.181180
vn 0.285924 -0.958024 -0.020923
vn 0.285924 -0.958024 -0.020923
vn 0.285924 -0.958024 -0.020923
vn 0.176834 -0.979584 0.095633
vn 0.176834 -0.979584 0.095633
vn 0.176834 -0.979584 0.095633
s off
g pSphere1
usemtl phong1SG
f 1/1/1 2/2/2 10/11/3 9/10/4
f 2/2/5 3/3/6 11/12/7 10/11/8
f 3/3/9 4/4/10 12/13/11 11/12/12
f 4/4/13 5/5/14 13/14/15 12/13/16
f 5/5/17 6/6/18 14/15/19 13/14/20
f 6/6/21 7/7/22 15/16/23 14/15/24
f 7/7/25 8/8/26 16/17/27 15/16/28
f 8/8/29 1/9/30 9/18/31 16/17/32
f 9/10/33 10/11/34 18/20/35 17/19/36
f 10/11/37 11/12/38 19/21/39 18/20/40
f 11/12/41 12/13/42 20/22/43 19/21/44
f 12/13/45 13/14/46 21/23/47 20/22/48
f 13/14/49 14/15/50 22/24/51 21/23/52
f 14/15/53 15/16/54 23/25/55 22/24/56
f 15/16/57 16/17/58 24/26/59 23/25/60
f 16/17/61 9/18/62 17/27/63 24/26/64
f 17/19/65 18/20/66 26/29/67 25/28/68
f 18/20/69 19/21/70 27/30/71 26/29/72
f 19/21/73 20/22/74 28/31/75 27/30/76
f 20/22/77 21/23/78 29/32/79 28/31/80
f 21/23/81 22/24/82 30/33/83 29/32/84
f 22/24/85 23/25/86 31/34/87 30/33/88
f 23/25/89 24/26/90 32/35/91 31/34/92
f 24/26/93 17/27/94 25/36/95 32/35/96
f 25/28/97 26/29/98 34/38/99 33/37/100
f 26/29/101 27/30/102 35/39/103 34/38/104
f 27/30/105 28/31/106 36/40/107 35/39/108
f 28/31/109 29/32/110 37/41/111 36/40/112
f 29/32/113 30/33/114 38/42/115 37/41/116
f 30/33/117 31/34/118 39/43/119 38/42/120
f 31/34/121 32/35/122 40/44/123 39/43/124
f 32/35/125 25/36/126 33/45/127 40/44/128
f 33/37/129 34/38/130 42/47/131 41/46/132
f 34/38/133 35/39/134 43/48/135 42/47/136
f 35/39/137 36/40/138 44/49/139 43/48/140
f 36/40/141 37/41/142 45/50/143 44/49/144
f 37/41/145 38/42/146 46/51/147 45/50/148
f 38/42/149 39/43/150 47/52/151 46/51/152
f 39/43/153 40/44/154 48/53/155 47/52/156
f 40/44/157 33/45/158 41/54/159 48/53/160
f 41/46/161 42/47/162 50/56/163 49/55/164
f 42/47/165 43/48/166 51/57/167 50/56/168
f 43/48/169 44/49/170 52/58/171 51/57/172
f 44/49/173 45/50/174 53/59/175 52/58/176
f 45/50/177 46/51/178 54/60/179 53/59/180
f 46/51/181 47/52/182 55/61/183 54/60/184
f 47/52/185 48/53/186 56/62/187 55/61/188
f 48/53/189 41/54/190 49/63/191 56/62/192
f 2/2/193 1/1/194 57/64/195
f 3/3/196 2/2/197 57/65/198
f 4/4/199 3/3/200 57/66/201
f 5/5/202 4/4/203 57/67/204
f 6/6/205 5/5/206 57/68/207
f 7/7/208 6/6/209 57/69/210
f 8/8/211 7/7/212 57/70/213
f 1/9/214 8/8/215 57/71/216
f 49/55/217 50/56/218 58/72/219
f 50/56/220 51/57/221 58/73/222
f 51/57/223 52/58/224 58/74/225
f 52/58/226 53/59/227 58/75/228
f 53/59/229 54/60/230 58/76/231
f 54/60/232 55/61/233 58/77/234
f 55/61/235 56/62/236 58/78/237
f 56/62/238 49/63/239 58/79/240
